<svg width="133" height="16" viewBox="0 0 133 16" fill="none" xmlns="http://www.w3.org/2000/svg">
<g id="Type=Tertiary, State=Pressed, Size=Medium">
<g id="Container">
<g id="16px/left arrow">
<g id="Group 2147204142">
<path id="Vector" d="M6.474 12.0034C5.56681 9.55444 4.43283 8.73811 2.99645 8.00342C4.43283 7.26873 5.79361 6.04424 6.474 4.00342" stroke="#A3462B"/>
<path id="Vector_2" d="M14.002 7.99878H2.99644" stroke="#A3462B"/>
</g>
</g>
<g id="Label">
<path id="Brand" d="M27.3 3.708H29.028L32.16 12H30.396L28.164 5.532H28.14L25.836 12H24.12L27.3 3.708ZM26.772 8.832H29.496L29.916 10.092H26.34L26.772 8.832ZM34.1151 3.708H37.5831C38.3591 3.708 39.0311 3.868 39.5991 4.188C40.1751 4.5 40.6151 4.964 40.9191 5.58C41.2311 6.196 41.3871 6.944 41.3871 7.824C41.3871 8.704 41.2351 9.46 40.9311 10.092C40.6271 10.716 40.1871 11.192 39.6111 11.52C39.0351 11.84 38.3351 12 37.5111 12H34.1151V3.708ZM37.3191 10.572C37.8151 10.572 38.2391 10.48 38.5911 10.296C38.9431 10.112 39.2151 9.824 39.4071 9.432C39.5991 9.032 39.6951 8.524 39.6951 7.908C39.6951 7.26 39.5991 6.732 39.4071 6.324C39.2151 5.916 38.9271 5.616 38.5431 5.424C38.1591 5.232 37.6791 5.136 37.1031 5.136H35.8071V10.572H37.3191ZM43.9869 3.708H47.4549C48.2309 3.708 48.9029 3.868 49.4709 4.188C50.0469 4.5 50.4869 4.964 50.7909 5.58C51.1029 6.196 51.2589 6.944 51.2589 7.824C51.2589 8.704 51.1069 9.46 50.8029 10.092C50.4989 10.716 50.0589 11.192 49.4829 11.52C48.9069 11.84 48.2069 12 47.3829 12H43.9869V3.708ZM47.1909 10.572C47.6869 10.572 48.1109 10.48 48.4629 10.296C48.8149 10.112 49.0869 9.824 49.2789 9.432C49.4709 9.032 49.5669 8.524 49.5669 7.908C49.5669 7.26 49.4709 6.732 49.2789 6.324C49.0869 5.916 48.7989 5.616 48.4149 5.424C48.0309 5.232 47.5509 5.136 46.9749 5.136H45.6789V10.572H47.1909ZM60.4584 5.136H57.8904V3.708H64.7184V5.136H62.1504V12H60.4584V5.136ZM70.4431 12.192C69.6111 12.192 68.8871 12.004 68.2711 11.628C67.6631 11.244 67.1951 10.724 66.8671 10.068C66.5391 9.412 66.3751 8.68 66.3751 7.872C66.3751 7.056 66.5351 6.316 66.8551 5.652C67.1831 4.988 67.6551 4.468 68.2711 4.092C68.8871 3.708 69.6111 3.516 70.4431 3.516C71.2671 3.516 71.9831 3.708 72.5911 4.092C73.2071 4.468 73.6791 4.988 74.0071 5.652C74.3351 6.308 74.4991 7.048 74.4991 7.872C74.4991 8.672 74.3351 9.4 74.0071 10.056C73.6791 10.712 73.2071 11.232 72.5911 11.616C71.9831 12 71.2671 12.192 70.4431 12.192ZM70.4431 10.764C70.9551 10.764 71.3871 10.636 71.7391 10.38C72.0991 10.124 72.3671 9.78 72.5431 9.348C72.7191 8.908 72.8071 8.416 72.8071 7.872C72.8071 7.312 72.7191 6.812 72.5431 6.372C72.3671 5.924 72.0991 5.572 71.7391 5.316C71.3871 5.06 70.9511 4.932 70.4311 4.932C69.9271 4.932 69.4951 5.06 69.1351 5.316C68.7831 5.564 68.5151 5.912 68.3311 6.36C68.1551 6.8 68.0671 7.304 68.0671 7.872C68.0671 8.416 68.1551 8.908 68.3311 9.348C68.5151 9.78 68.7831 10.124 69.1351 10.38C69.4951 10.636 69.9311 10.764 70.4431 10.764ZM81.7916 3.708H85.7276C86.2876 3.708 86.7636 3.784 87.1556 3.936C87.5476 4.08 87.8436 4.304 88.0436 4.608C88.2516 4.912 88.3556 5.292 88.3556 5.748C88.3556 6.028 88.3076 6.28 88.2116 6.504C88.1236 6.728 87.9916 6.924 87.8156 7.092C87.6396 7.252 87.4236 7.388 87.1676 7.5V7.524C87.6716 7.652 88.0556 7.896 88.3196 8.256C88.5916 8.616 88.7276 9.06 88.7276 9.588C88.7276 10.1 88.5996 10.54 88.3436 10.908C88.0876 11.268 87.7396 11.54 87.2996 11.724C86.8596 11.908 86.3636 12 85.8116 12H81.7916V3.708ZM85.5596 10.68C86.0476 10.68 86.4156 10.58 86.6636 10.38C86.9116 10.18 87.0356 9.876 87.0356 9.468C87.0356 9.068 86.9116 8.768 86.6636 8.568C86.4156 8.36 86.0596 8.256 85.5956 8.256H83.4836V10.68H85.5596ZM85.4636 7.116C85.7276 7.116 85.9516 7.08 86.1356 7.008C86.3276 6.928 86.4716 6.812 86.5676 6.66C86.6716 6.5 86.7236 6.304 86.7236 6.072C86.7236 5.72 86.6076 5.46 86.3756 5.292C86.1516 5.116 85.8236 5.028 85.3916 5.028H83.4836V7.116H85.4636ZM93.7242 3.708H95.4522L98.5842 12H96.8202L94.5882 5.532H94.5642L92.2602 12H90.5442L93.7242 3.708ZM93.1962 8.832H95.9202L96.3402 10.092H92.7642L93.1962 8.832ZM104.082 12.192C103.274 12.192 102.566 12.004 101.958 11.628C101.35 11.244 100.882 10.728 100.554 10.08C100.226 9.424 100.062 8.692 100.062 7.884C100.062 7.06 100.226 6.316 100.554 5.652C100.882 4.988 101.35 4.468 101.958 4.092C102.566 3.708 103.282 3.516 104.106 3.516C104.722 3.516 105.286 3.624 105.798 3.84C106.31 4.056 106.73 4.372 107.058 4.788C107.386 5.196 107.586 5.684 107.658 6.252H106.038C105.982 5.988 105.866 5.756 105.69 5.556C105.514 5.348 105.29 5.192 105.018 5.088C104.754 4.976 104.458 4.92 104.13 4.92C103.594 4.92 103.146 5.052 102.786 5.316C102.434 5.572 102.174 5.924 102.006 6.372C101.838 6.812 101.754 7.304 101.754 7.848C101.754 8.384 101.838 8.876 102.006 9.324C102.174 9.764 102.438 10.116 102.798 10.38C103.158 10.644 103.606 10.776 104.142 10.776C104.614 10.776 105.014 10.684 105.342 10.5C105.678 10.308 105.922 10.028 106.074 9.66C106.226 9.292 106.274 8.84 106.218 8.304L106.938 8.88H104.31V7.632H107.778V8.412C107.778 9.292 107.602 10.016 107.25 10.584C106.906 11.152 106.454 11.564 105.894 11.82C105.342 12.068 104.738 12.192 104.082 12.192Z" fill="#A3462B"/>
</g>
<g id="16px/right arrow">
<g id="Group 2147204140">
<path id="Vector_3" d="M126.526 12.0034C127.433 9.55444 128.567 8.73811 130.004 8.00342C128.567 7.26873 127.206 6.04424 126.526 4.00342" stroke="#A3462B"/>
<path id="Vector_4" d="M118.998 7.99878H130.004" stroke="#A3462B"/>
</g>
</g>
</g>
</g>
</svg>
